HIERARCHY
ROOT Hips
{
    OFFSET   0.000000   0.000000   0.000000
    CHANNELS 6 Xposition Yposition Zposition Zrotation Xrotation Yrotation
    JOINT Chest
    {
        OFFSET   0.000000   8.007230   0.000000
        CHANNELS 3 Zrotation Xrotation Yrotation
        JOINT Chest2
        {
            OFFSET   0.000000  22.077100   0.000000
            CHANNELS 3 Zrotation Xrotation Yrotation
            JOINT Neck
            {
                OFFSET   0.000000  23.255100   0.000000
                CHANNELS 3 Zrotation Xrotation Yrotation
                JOINT Head
                {
                    OFFSET   0.000000  14.370100   1.956600
                    CHANNELS 3 Zrotation Xrotation Yrotation
                    End Site
                    {
                        OFFSET   0.000000  19.566000   0.000000
                    }
                }
            }
            JOINT LeftCollar
            {
                OFFSET   3.911900  19.017000  -0.467063
                CHANNELS 3 Zrotation Xrotation Yrotation
                JOINT LeftShoulder
                {
                    OFFSET  10.383700   0.000000   0.000000
                    CHANNELS 3 Zrotation Xrotation Yrotation
                    JOINT LeftElbow
                    {
                        OFFSET  26.662100   0.001193   0.000980
                        CHANNELS 3 Zrotation Xrotation Yrotation
                        JOINT LeftWrist
                        {
                            OFFSET  28.869000  -0.000059  -0.000082
                            CHANNELS 3 Zrotation Xrotation Yrotation
                            JOINT LeftFinger0
                            {
                                OFFSET   2.044650  -2.323450   3.252850
                                CHANNELS 3 Zrotation Xrotation Yrotation
                                JOINT LeftFinger01
                                {
                                    OFFSET   3.088130   0.000000   0.000000
                                    CHANNELS 3 Zrotation Xrotation Yrotation
                                    JOINT LeftFinger02
                                    {
                                        OFFSET   2.639460   0.000000   0.000000
                                        CHANNELS 3 Zrotation Xrotation Yrotation
                                        End Site
                                        {
                                            OFFSET   2.582190   0.000000   0.000000
                                        }
                                    }
                                }
                            }
                            JOINT LeftFinger1
                            {
                                OFFSET   8.364480   0.000000   3.252850
                                CHANNELS 3 Zrotation Xrotation Yrotation
                                JOINT LeftFinger11
                                {
                                    OFFSET   4.646930   0.000000   0.000000
                                    CHANNELS 3 Zrotation Xrotation Yrotation
                                    JOINT LeftFinger12
                                    {
                                        OFFSET   2.323470   0.000000   0.000000
                                        CHANNELS 3 Zrotation Xrotation Yrotation
                                        End Site
                                        {
                                            OFFSET   2.273050   0.000000   0.000000
                                        }
                                    }
                                }
                            }
                            JOINT LeftFinger2
                            {
                                OFFSET   8.364490   0.000016   1.078090
                                CHANNELS 3 Zrotation Xrotation Yrotation
                                JOINT LeftFinger21
                                {
                                    OFFSET   5.111610   0.000000   0.000000
                                    CHANNELS 3 Zrotation Xrotation Yrotation
                                    JOINT LeftFinger22
                                    {
                                        OFFSET   2.788150   0.000016   0.000000
                                        CHANNELS 3 Zrotation Xrotation Yrotation
                                        End Site
                                        {
                                            OFFSET   2.727660   0.000000   0.000000
                                        }
                                    }
                                }
                            }
                            JOINT LeftFinger3
                            {
                                OFFSET   7.899780   0.000015  -1.078090
                                CHANNELS 3 Zrotation Xrotation Yrotation
                                JOINT LeftFinger31
                                {
                                    OFFSET   4.646930   0.000000   0.000000
                                    CHANNELS 3 Zrotation Xrotation Yrotation
                                    JOINT LeftFinger32
                                    {
                                        OFFSET   2.323470   0.000000   0.000000
                                        CHANNELS 3 Zrotation Xrotation Yrotation
                                        End Site
                                        {
                                            OFFSET   2.273050   0.000000   0.000000
                                        }
                                    }
                                }
                            }
                            JOINT LeftFinger4
                            {
                                OFFSET   7.435090   0.000000  -3.252850
                                CHANNELS 3 Zrotation Xrotation Yrotation
                                JOINT LeftFinger41
                                {
                                    OFFSET   3.717550   0.000000   0.000000
                                    CHANNELS 3 Zrotation Xrotation Yrotation
                                    JOINT LeftFinger42
                                    {
                                        OFFSET   1.858770   0.000000   0.000000
                                        CHANNELS 3 Zrotation Xrotation Yrotation
                                        End Site
                                        {
                                            OFFSET   1.818440   0.000000   0.000000
                                        }
                                    }
                                }
                            }
                        }
                    }
                }
            }
            JOINT RightCollar
            {
                OFFSET  -3.911910  19.017000  -0.467062
                CHANNELS 3 Zrotation Xrotation Yrotation
                JOINT RightShoulder
                {
                    OFFSET -10.383700   0.000014   0.000000
                    CHANNELS 3 Zrotation Xrotation Yrotation
                    JOINT RightElbow
                    {
                        OFFSET -26.662100   0.001225   0.001091
                        CHANNELS 3 Zrotation Xrotation Yrotation
                        JOINT RightWrist
                        {
                            OFFSET -28.869000  -0.000020  -0.000085
                            CHANNELS 3 Zrotation Xrotation Yrotation
                            JOINT RightFinger0
                            {
                                OFFSET  -2.044650  -2.323490   3.252850
                                CHANNELS 3 Zrotation Xrotation Yrotation
                                JOINT RightFinger01
                                {
                                    OFFSET  -3.088130   0.000000   0.000000
                                    CHANNELS 3 Zrotation Xrotation Yrotation
                                    JOINT RightFinger02
                                    {
                                        OFFSET  -2.639460   0.000000   0.000000
                                        CHANNELS 3 Zrotation Xrotation Yrotation
                                        End Site
                                        {
                                            OFFSET  -2.582190   0.000000   0.000000
                                        }
                                    }
                                }
                            }
                            JOINT RightFinger1
                            {
                                OFFSET  -8.364480   0.000000   3.252850
                                CHANNELS 3 Zrotation Xrotation Yrotation
                                JOINT RightFinger11
                                {
                                    OFFSET  -4.646930   0.000000   0.000000
                                    CHANNELS 3 Zrotation Xrotation Yrotation
                                    JOINT RightFinger12
                                    {
                                        OFFSET  -2.323470   0.000000   0.000000
                                        CHANNELS 3 Zrotation Xrotation Yrotation
                                        End Site
                                        {
                                            OFFSET  -2.273050   0.000000   0.000000
                                        }
                                    }
                                }
                            }
                            JOINT RightFinger2
                            {
                                OFFSET  -8.364480   0.000000   1.078090
                                CHANNELS 3 Zrotation Xrotation Yrotation
                                JOINT RightFinger21
                                {
                                    OFFSET  -5.111620   0.000000   0.000000
                                    CHANNELS 3 Zrotation Xrotation Yrotation
                                    JOINT RightFinger22
                                    {
                                        OFFSET  -2.788160   0.000000   0.000000
                                        CHANNELS 3 Zrotation Xrotation Yrotation
                                        End Site
                                        {
                                            OFFSET  -2.727660   0.000000   0.000000
                                        }
                                    }
                                }
                            }
                            JOINT RightFinger3
                            {
                                OFFSET  -7.899780   0.000000  -1.078090
                                CHANNELS 3 Zrotation Xrotation Yrotation
                                JOINT RightFinger31
                                {
                                    OFFSET  -4.646930   0.000000   0.000000
                                    CHANNELS 3 Zrotation Xrotation Yrotation
                                    JOINT RightFinger32
                                    {
                                        OFFSET  -2.323470   0.000000   0.000000
                                        CHANNELS 3 Zrotation Xrotation Yrotation
                                        End Site
                                        {
                                            OFFSET  -2.273050   0.000000   0.000000
                                        }
                                    }
                                }
                            }
                            JOINT RightFinger4
                            {
                                OFFSET  -7.435090   0.000000  -3.252850
                                CHANNELS 3 Zrotation Xrotation Yrotation
                                JOINT RightFinger41
                                {
                                    OFFSET  -3.717550   0.000000   0.000000
                                    CHANNELS 3 Zrotation Xrotation Yrotation
                                    JOINT RightFinger42
                                    {
                                        OFFSET  -1.858760   0.000000   0.000000
                                        CHANNELS 3 Zrotation Xrotation Yrotation
                                        End Site
                                        {
                                            OFFSET  -1.818440   0.000000   0.000000
                                        }
                                    }
                                }
                            }
                        }
                    }
                }
            }
        }
    }
    JOINT LeftHip
    {
        OFFSET   9.783030   0.000000   0.000000
        CHANNELS 3 Zrotation Xrotation Yrotation
        JOINT LeftKnee
        {
            OFFSET   0.000063 -41.789100   0.000608
            CHANNELS 3 Zrotation Xrotation Yrotation
            JOINT LeftAnkle
            {
                OFFSET   0.000048 -41.133200  -0.000184
                CHANNELS 3 Zrotation Xrotation Yrotation
                JOINT LeftToe
                {
                    OFFSET   0.000000  -6.358960  14.674500
                    CHANNELS 3 Zrotation Xrotation Yrotation
                    End Site
                    {
                        OFFSET   0.000000   0.000000   3.913200
                    }
                }
            }
        }
    }
    JOINT RightHip
    {
        OFFSET  -9.783030   0.000000   0.000000
        CHANNELS 3 Zrotation Xrotation Yrotation
        JOINT RightKnee
        {
            OFFSET   0.000071 -41.789100   0.001239
            CHANNELS 3 Zrotation Xrotation Yrotation
            JOINT RightAnkle
            {
                OFFSET   0.000037 -41.133200  -0.000166
                CHANNELS 3 Zrotation Xrotation Yrotation
                JOINT RightToe
                {
                    OFFSET   0.000000  -6.358960  14.674500
                    CHANNELS 3 Zrotation Xrotation Yrotation
                    End Site
                    {
                        OFFSET   0.000000   0.000000   3.913200
                    }
                }
            }
        }
    }
}
MOTION
Frames: 4
Frame Time:   0.016667
  5.077000  89.382200  -0.383513  -8.429240 -20.568000  -9.353680   0.634994  12.676000   1.303120   1.003960  25.363000   2.555780  -0.663648   0.390444   0.004246  -1.091440   0.790466   0.953198  -4.359840  -3.020000   1.661260 -55.922900  -0.423942 -45.482200  13.557900 -22.656800 -118.116000  44.340500   8.527320 -32.583700  66.387900  57.352600 -116.803000 -36.047800  -0.237175   0.292835 -12.965800  -0.143326   0.129853 -95.355900   0.000826   2.148900 -85.927800  -1.323680  -0.206937 -64.581100  -0.551775  -0.744631 -92.891500  -0.388707  -1.186680 -91.229500  -0.274569  -1.150830 -70.287300   0.724584  -0.775594 -91.301100  -6.250460  -0.650006 -84.326900  -0.422921  -0.870575 -64.880300   0.383299  -0.784455 -87.977500  -9.623810  -0.207159 -114.794000   0.221339  -0.665338 -79.824200   0.520546  -0.087676   6.400860  -3.768570   8.122070  71.417200  19.698900  -0.649312  -0.346231  -9.581680  21.513300 -14.994800  -3.609470   2.295270 -36.010900  26.074700  59.656900  30.944300   0.004764  -0.002771  10.472200   0.000000   0.005969  31.584100   6.633160  10.640400  26.348000   0.002883  -0.000228  18.443600   0.001643   0.000489  28.525700   2.927870   5.368270  38.382500  -0.003364  -0.004367  25.562800  -0.004216  -0.000290  28.195500   2.508250   4.666650  34.198800  -0.002971  -0.001661  22.776400  -0.003019  -0.000857  36.019500  -0.004824  -0.006599  54.029300  -0.002406  -0.002557  35.983500  -0.006005  -0.002884   1.252720  23.669500   5.019460   0.154764   0.077901   9.021950   0.846503  -4.321450   3.916600  -0.000000   0.000000  -0.000000   4.625650  17.596400  -5.394510  -3.958030  10.360600  -6.565440   2.383660  -6.502480   3.277460   0.000000   0.000000   0.000000
  5.170180  89.366900  -0.409169  -8.592720 -20.473100  -9.733560   0.613654  12.672500   1.130030   1.001820  25.356300   2.200900  -0.279485   0.149585   0.001243  -0.458181   0.303043   1.008960  -4.623670  -2.935860   1.587460 -54.865600   1.627910 -46.829100  21.192800 -25.567000 -111.331000  47.359400  14.819400 -33.892500  61.755500  55.990300 -110.987000 -35.121800   0.602766   0.665981 -12.494200   0.294552   0.014301 -83.216300  -0.128364  -0.259783 -68.033400  -1.304930   0.029943 -51.212300  -0.740203  -0.647539 -79.379800  -1.256370   1.008510 -70.573800  -0.281394  -0.757431 -54.549800   0.508433  -0.580391 -78.015000  -6.831730   3.525580 -68.310900  -0.505290  -0.442133 -52.408300   0.139443  -0.530493 -73.813600 -11.024900   3.180340 -105.245000  -0.405839  -1.042310 -71.587300   0.279281  -0.516012   6.590160  -3.895730   8.312670  71.383500  19.697300  -0.683225  -0.374085  -9.538820  21.474600 -14.916400  -3.592300   2.313640 -35.979000  26.077800  59.610300  31.025100   0.004773  -0.002785  10.512600   0.000000   0.005969  31.596500   6.557030  10.515400  26.343500   0.002923  -0.000227  18.440400   0.001652   0.000490  28.530500   2.856780   5.237830  38.346400  -0.003362  -0.004362  25.538700  -0.004214  -0.000294  28.198800   2.439180   4.538290  34.167600  -0.002972  -0.001663  22.755600  -0.003018  -0.000842  35.997600   0.000540   0.000858  53.996400  -0.002402  -0.002499  35.961600  -0.006005  -0.002914   1.265750  23.642800   5.015810   0.116797   0.075517   9.200040   0.835647  -4.319520   4.079790  -0.000000   0.000000  -0.000000   4.561080  17.372300  -5.436990  -3.986950  10.547600  -6.267670   2.425640  -6.495990   3.456540  -0.000000   0.000000   0.000000
  5.246490  89.358600  -0.430569  -8.731650 -20.417900 -10.040700   0.599508  12.663600   0.982276   1.008330  25.335500   1.897190   0.098083  -0.079620   0.000814   0.163163  -0.160695   1.064850  -4.752580  -2.795810   1.400510 -54.063800   2.808640 -48.393100  28.050600 -26.891000 -102.603000  47.424500  20.625000 -35.239600  55.449600  53.233400 -103.108000 -33.013400   1.600200   1.039460 -11.506200   0.805681  -0.093450 -58.498800  -0.146335  -4.661050 -40.556000  -1.173590   0.182583 -30.371700  -0.792988  -0.451909 -54.779100  -1.876790   4.129750 -46.475800  -0.283271  -0.171857 -35.725500   0.178779  -0.256175 -54.555300  -7.125310   8.862090 -48.841200  -0.560332   0.160149 -36.910700  -0.187297  -0.137765 -55.504200 -12.490700   9.361790 -86.146600  -1.162420  -1.252860 -56.938000  -0.111781  -0.864806   6.785540  -3.989240   8.371460  71.371800  19.686700  -0.701004  -0.403931  -9.527580  21.343400 -14.840300  -3.539230   2.320350 -35.942600  26.064700  59.553600  31.102300   0.004782  -0.002808  10.551200   0.000000   0.005971  31.589300   6.482480  10.402600  26.329500   0.002961  -0.000225  18.430600   0.001659   0.000491  28.532200   2.793950   5.123060  38.280800  -0.003361  -0.004358  25.495000  -0.004212  -0.000296  28.194600   2.379080   4.427710  34.104300  -0.002974  -0.001666  22.713500  -0.003018  -0.000826  35.956600   0.010574   0.014697  53.934900  -0.002399  -0.002444  35.920700  -0.006003  -0.002943   1.275500  23.632400   4.997050   0.080786   0.068333   9.358320   0.799538  -4.311240   4.222440   0.000000   0.000000  -0.000000   4.509630  17.263100  -5.505050  -3.999490  10.629400  -6.109190   2.452240  -6.472440   3.644810  -0.000000   0.000000   0.000000
  5.302360  89.362100  -0.461261  -8.838360 -20.423500 -10.240000   0.589014  12.651100   0.848465   1.019110  25.309300   1.621490   0.445034  -0.317016   0.003024   0.735826  -0.640779   1.164080  -4.763360  -2.656270   1.030370 -54.162300   2.425300 -50.179800  32.190400 -24.389300 -94.095900  41.016100  29.366800 -30.381200  51.134100  50.683000 -97.854000 -26.532800   1.784210   0.876934  -8.286210   0.891141  -0.141905 -25.393200  -0.112494 -10.068200 -14.909000  -0.508993   0.077783 -10.445400  -0.385128  -0.154948 -28.034400  -1.686320   5.632460 -23.261300  -0.245028   0.203456 -17.029500  -0.058977   0.064787 -30.976200  -5.856240  10.183800 -27.918900  -0.484874   0.427011 -20.277400  -0.287454   0.163417 -38.011400 -12.369200  16.471800 -61.469000  -1.313660  -0.916147 -40.484200  -0.469816  -0.827619   6.984550  -4.056900   8.370880  71.452000  19.579500  -0.680235  -0.432458  -9.555180  21.090400 -14.848300  -3.429780   2.280510 -35.894900  26.005300  59.438200  31.169200   0.004771  -0.002821  10.584700   0.000000   0.005975  31.560700   6.407460  10.302300  26.295900   0.002997  -0.000229  18.407100   0.001663   0.000488  28.532200   2.741350   5.027210  38.199200  -0.003362  -0.004358  25.440600  -0.004214  -0.000296  28.187000   2.328470   4.336930  34.007400  -0.002976  -0.001666  22.648900  -0.003022  -0.000810  35.901900   0.023889   0.032774  53.853100  -0.002402  -0.002394  35.866200  -0.006000  -0.002973   1.278320  23.679700   4.937980   0.055394   0.031071   9.485070   0.748228  -4.276660   4.326880   0.000000   0.000000   0.000000   4.468720  17.276900  -5.545150  -3.994180  10.617000  -6.105580   2.472800  -6.423540   3.831990   0.000000   0.000000   0.000000
